# xmcd CD database file
#
# Track frame offsets:
#	182
#	12147
#	27150
#	40835
#	52457
#	65560
#	77625
#	90537
#	103275
#	117290
#	130372
#	142065
#	156145
#	167805
#	179622
#	191987
#	205682
#	216907
#	230007
#	241387
#	254772
#
# Disc length: 3572 seconds
#
# Revision: 0
# Processed by: cddbd v1.5.1PL0 Copyright (c) Steve Scherf et al.
# Submitted via: CDex 1.51
#
DISCID=410df215
DTITLE=Wingy Manone - 1937-1938 [Classics #952, 1997]
DYEAR=1937
DGENRE=Jazz
TTITLE0=You're Precious to Me
TTITLE1=It Must Be Religion
TTITLE2=The Prisoner's Song
TTITLE3=I Ain't Got Nobody
TTITLE4=I've Got My Heart Set on You
TTITLE5=Everything You Said Came Through
TTITLE6=Getting Some Fun Out of Life
TTITLE7=Jazz Me Blues
TTITLE8=Laugh Your Way Through Life
TTITLE9=Annie Laurie
TTITLE10=Loch Lomond
TTITLE11=Down Stream
TTITLE12=Where's the Waiter?
TTITLE13=My Mariuccia Takes a Steamboat
TTITLE14=In the Land of Yamo Yamo (Funiculi Funicula)
TTITLE15=Heart of Mine
TTITLE16=Let's Break the Good News
TTITLE17=Martha
TTITLE18=Mannone Blues
TTITLE19=The Flat Foot Floogee
TTITLE20=Little Joe from Chicago
EXTD=YEAR: 1937
EXTT0=
EXTT1=
EXTT2=
EXTT3=
EXTT4=
EXTT5=
EXTT6=
EXTT7=
EXTT8=
EXTT9=
EXTT10=
EXTT11=
EXTT12=
EXTT13=
EXTT14=
EXTT15=
EXTT16=
EXTT17=
EXTT18=
EXTT19=
EXTT20=
PLAYORDER=
